<?xml version="1.0" encoding="UTF-8" standalone="no"?>
<svg
   xmlns:dc="http://purl.org/dc/elements/1.1/"
   xmlns:cc="http://creativecommons.org/ns#"
   xmlns:rdf="http://www.w3.org/1999/02/22-rdf-syntax-ns#"
   xmlns:svg="http://www.w3.org/2000/svg"
   xmlns="http://www.w3.org/2000/svg"
   xmlns:sodipodi="http://sodipodi.sourceforge.net/DTD/sodipodi-0.dtd"
   xmlns:inkscape="http://www.inkscape.org/namespaces/inkscape"
   width="20.579784cm"
   height="17.822617cm"
   viewBox="0 0 205.79784 178.22617"
   version="1.1"
   id="svg8"
   sodipodi:docname="satRday Logo NoHexBlue.svg"
   inkscape:version="0.92.3 (2405546, 2018-03-11)">
  <sodipodi:namedview
     pagecolor="#ffffff"
     bordercolor="#666666"
     borderopacity="1"
     objecttolerance="10"
     gridtolerance="10"
     guidetolerance="10"
     inkscape:pageopacity="0"
     inkscape:pageshadow="2"
     inkscape:window-width="640"
     inkscape:window-height="480"
     id="namedview24"
     showgrid="false"
     inkscape:current-layer="svg8" />
  <defs
     id="defs2" />
  <metadata
     id="metadata5">
    <rdf:RDF>
      <cc:Work
         rdf:about="">
        <dc:format>image/svg+xml</dc:format>
        <dc:type
           rdf:resource="http://purl.org/dc/dcmitype/StillImage" />
        <dc:title />
      </cc:Work>
    </rdf:RDF>
  </metadata>
  <g
     aria-label="R"
     style="font-style:normal;font-variant:normal;font-weight:900;font-stretch:normal;font-size:80.53839111px;line-height:1.25;font-family:Arial;-inkscape-font-specification:'Arial, Heavy';font-variant-ligatures:normal;font-variant-caps:normal;font-variant-numeric:normal;font-feature-settings:normal;text-align:start;letter-spacing:0px;word-spacing:0px;writing-mode:lr-tb;text-anchor:start;fill:#2165b6;fill-opacity:1;stroke:none;stroke-width:2.01345849"
     id="text971">
    <path
       d="M 74.545313,117.93863 V 60.287613 h 29.690667 q 8.25833,0 12.62345,1.415714 4.36512,1.415714 7.03924,5.269602 2.67413,3.814562 2.67413,9.320116 0,4.797697 -2.04492,8.297657 -2.04492,3.460634 -5.62353,5.62353 -2.28087,1.376388 -6.25274,2.280872 3.18536,1.061786 4.6404,2.123571 0.98313,0.707857 2.83143,3.028055 1.88761,2.320198 2.51682,3.57861 l 8.61226,16.71329 h -20.1346 l -9.51674,-17.61777 Q 99.792211,96.899547 98.376497,95.877087 96.449553,94.540024 94.011379,94.540024 H 92.438364 V 117.93863 Z M 92.438364,83.646892 h 7.511149 q 1.219087,0 4.719047,-0.786507 1.76964,-0.353929 2.87075,-1.808968 1.14044,-1.455039 1.14044,-3.342658 0,-2.792102 -1.76964,-4.286467 -1.76965,-1.494365 -6.64599,-1.494365 h -7.825756 z"
       style="font-style:normal;font-variant:normal;font-weight:900;font-stretch:normal;font-size:80.53839111px;font-family:Arial;-inkscape-font-specification:'Arial, Heavy';font-variant-ligatures:normal;font-variant-caps:normal;font-variant-numeric:normal;font-feature-settings:normal;text-align:start;writing-mode:lr-tb;text-anchor:start;fill:#2165b6;fill-opacity:1;stroke-width:2.01345849"
       id="path3384" />
  </g>
  <g
     aria-label="SAT"
     style="font-style:normal;font-variant:normal;font-weight:normal;font-stretch:condensed;font-size:40.01023483px;line-height:1.25;font-family:'Agency FB';-inkscape-font-specification:'Agency FB, Condensed';font-variant-ligatures:normal;font-variant-caps:normal;font-variant-numeric:normal;font-feature-settings:normal;text-align:start;letter-spacing:0px;word-spacing:0px;writing-mode:lr-tb;text-anchor:start;fill:#2165b6;fill-opacity:1;stroke:none;stroke-width:1.00025582"
     id="text975">
    <path
       d="m 39.420894,102.2708 q 0,0.95728 -0.605623,1.5629 -0.586088,0.60562 -1.543364,0.60562 h -7.697282 q -0.957276,0 -1.582436,-0.60562 -0.605623,-0.60562 -0.605623,-1.5629 v -7.75589 h 2.715538 v 7.52145 h 6.603252 V 94.749345 L 28.265697,84.551423 Q 27.386566,83.496466 27.386566,82.22661 v -6.19299 q 0,-0.957277 0.605623,-1.5629 0.62516,-0.605624 1.582436,-0.605624 h 7.697282 q 0.957276,0 1.543364,0.605624 0.605623,0.605623 0.605623,1.5629 v 7.111194 h -2.715538 v -6.876759 h -6.603252 v 6.446961 l 8.478732,10.197921 q 0.840058,1.015885 0.840058,2.285741 z"
       style="font-style:normal;font-variant:normal;font-weight:normal;font-stretch:condensed;font-size:40.01023483px;font-family:'Agency FB';-inkscape-font-specification:'Agency FB, Condensed';font-variant-ligatures:normal;font-variant-caps:normal;font-variant-numeric:normal;font-feature-settings:normal;text-align:start;writing-mode:lr-tb;text-anchor:start;fill:#2165b6;fill-opacity:1;stroke-width:1.00025582"
       id="path3377" />
    <path
       d="m 56.554184,104.43932 h -2.696003 l -1.074493,-6.798611 h -6.075773 l -1.074494,6.798611 h -2.617857 v -0.0781 l 5.450613,-30.574229 h 2.676466 z M 52.432035,95.237751 49.755569,78.671013 47.059567,95.237751 Z"
       style="font-style:normal;font-variant:normal;font-weight:normal;font-stretch:condensed;font-size:40.01023483px;font-family:'Agency FB';-inkscape-font-specification:'Agency FB, Condensed';font-variant-ligatures:normal;font-variant-caps:normal;font-variant-numeric:normal;font-feature-settings:normal;text-align:start;writing-mode:lr-tb;text-anchor:start;fill:#2165b6;fill-opacity:1;stroke-width:1.00025582"
       id="path3379" />
    <path
       d="M 70.776573,76.268055 H 66.048801 V 104.43932 H 63.333262 V 76.268055 h -4.766844 v -2.402959 h 12.210155 z"
       style="font-style:normal;font-variant:normal;font-weight:normal;font-stretch:condensed;font-size:40.01023483px;font-family:'Agency FB';-inkscape-font-specification:'Agency FB, Condensed';font-variant-ligatures:normal;font-variant-caps:normal;font-variant-numeric:normal;font-feature-settings:normal;text-align:start;writing-mode:lr-tb;text-anchor:start;fill:#2165b6;fill-opacity:1;stroke-width:1.00025582"
       id="path3381" />
  </g>
  <g
     aria-label="DAY"
     style="font-style:normal;font-variant:normal;font-weight:normal;font-stretch:condensed;font-size:40.01023483px;line-height:1.25;font-family:'Agency FB';-inkscape-font-specification:'Agency FB, Condensed';font-variant-ligatures:normal;font-variant-caps:normal;font-variant-numeric:normal;font-feature-settings:normal;text-align:start;letter-spacing:0px;word-spacing:0px;writing-mode:lr-tb;text-anchor:start;fill:#2165b6;fill-opacity:1;stroke:none;stroke-width:1.00025582"
     id="text979">
    <path
       d="m 143.8534,98.910565 q 0,2.422495 -1.60198,3.985395 -1.58243,1.54336 -4.00493,1.54336 h -6.99397 V 73.865096 h 6.99397 q 2.44203,0 4.02447,1.5629 1.58244,1.543363 1.58244,3.965858 z m -2.71554,-0.273507 V 79.628289 q 0,-1.504291 -0.95728,-2.422495 -0.93774,-0.937739 -2.44203,-0.937739 h -3.77049 v 25.768305 h 3.6142 q 1.58244,0 2.55925,-0.89866 0.99635,-0.91821 0.99635,-2.500642 z"
       style="font-style:normal;font-variant:normal;font-weight:normal;font-stretch:condensed;font-size:40.01023483px;font-family:'Agency FB';-inkscape-font-specification:'Agency FB, Condensed';font-variant-ligatures:normal;font-variant-caps:normal;font-variant-numeric:normal;font-feature-settings:normal;text-align:start;writing-mode:lr-tb;text-anchor:start;fill:#2165b6;fill-opacity:1;stroke-width:1.00025582"
       id="path3370" />
    <path
       d="m 160.92808,104.43932 h -2.696 l -1.0745,-6.798611 h -6.07577 l -1.0745,6.798611 h -2.61785 v -0.0781 l 5.45061,-30.574229 h 2.67647 z m -4.12215,-9.201569 -2.67647,-16.566738 -2.696,16.566738 z"
       style="font-style:normal;font-variant:normal;font-weight:normal;font-stretch:condensed;font-size:40.01023483px;font-family:'Agency FB';-inkscape-font-specification:'Agency FB, Condensed';font-variant-ligatures:normal;font-variant-caps:normal;font-variant-numeric:normal;font-feature-settings:normal;text-align:start;writing-mode:lr-tb;text-anchor:start;fill:#2165b6;fill-opacity:1;stroke-width:1.00025582"
       id="path3372" />
    <path
       d="m 176.90873,74.040922 -3.71189,12.366445 q -0.7033,1.855944 -1.85594,6.19299 v 11.838963 h -2.71554 V 92.600357 q -0.27351,-1.484754 -0.84006,-3.125799 -0.93774,-2.81322 -1.01588,-3.067191 l -3.71189,-12.366445 q 0,-0.01954 0,-0.175826 h 2.75461 l 4.20029,15.296882 4.16122,-15.296882 h 2.73508 q 0,0.136754 0,0.175826 z"
       style="font-style:normal;font-variant:normal;font-weight:normal;font-stretch:condensed;font-size:40.01023483px;font-family:'Agency FB';-inkscape-font-specification:'Agency FB, Condensed';font-variant-ligatures:normal;font-variant-caps:normal;font-variant-numeric:normal;font-feature-settings:normal;text-align:start;writing-mode:lr-tb;text-anchor:start;fill:#2165b6;fill-opacity:1;stroke-width:1.00025582"
       id="path3374" />
  </g>
  <path
     inkscape:connector-curvature="0"
     style="opacity:1;vector-effect:none;fill:#989cdb;fill-opacity:1;stroke:none;stroke-width:1.4762336;stroke-linecap:round;stroke-linejoin:round;stroke-miterlimit:4;stroke-dasharray:none;stroke-dashoffset:0;stroke-opacity:1;paint-order:normal"
     d="m 138.20764,116.9111 c -1.99859,-1.37564 -2.65583,-3.7106 -1.47877,-5.83221 1.1771,-2.12162 3.59371,-2.75407 5.81957,-1.78855 2.22586,0.96555 3.04053,3.92948 1.86347,6.05107 -1.17708,2.12162 -4.20571,2.94533 -6.20427,1.56969 0,0 0,0 0,0"
     id="path1954" />
  <path
     inkscape:connector-curvature="0"
     style="opacity:1;vector-effect:none;fill:#2165b6;fill-opacity:1;stroke:none;stroke-width:1.4762336;stroke-linecap:round;stroke-linejoin:round;stroke-miterlimit:4;stroke-dasharray:none;stroke-dashoffset:0;stroke-opacity:1;paint-order:normal"
     d="m 124.40332,129.43133 c -1.24146,-2.08458 -0.86528,-4.48338 1.09025,-5.91956 1.95556,-1.43617 4.41694,-1.00577 6.03338,0.80361 1.61646,1.80937 1.12296,4.84188 -0.83255,6.27806 -1.95556,1.43615 -5.04963,0.92249 -6.29108,-1.16211 0,0 0,0 0,0"
     id="path1952" />
  <path
     inkscape:connector-curvature="0"
     style="opacity:1;vector-effect:none;fill:#2165b6;fill-opacity:1;stroke:none;stroke-width:1.4762336;stroke-linecap:round;stroke-linejoin:round;stroke-miterlimit:4;stroke-dasharray:none;stroke-dashoffset:0;stroke-opacity:1;paint-order:normal"
     d="m 106.62579,135.00828 c -0.22108,-2.41614 1.12857,-4.45313 3.51021,-4.9162 2.38166,-0.46298 4.40515,0.94804 5.10358,3.27159 0.69841,2.32357 -1.04515,4.8901 -3.42679,5.35312 -2.38164,0.46298 -4.96603,-1.29234 -5.187,-3.70851 0,0 0,0 0,0"
     id="path1950" />
  <path
     inkscape:connector-curvature="0"
     style="opacity:1;vector-effect:none;fill:#989cdb;fill-opacity:1;stroke:none;stroke-width:1.4762336;stroke-linecap:round;stroke-linejoin:round;stroke-miterlimit:4;stroke-dasharray:none;stroke-dashoffset:0;stroke-opacity:1;paint-order:normal"
     d="m 88.140023,132.66198 c 0.85534,-2.27049 2.99566,-3.60371 5.33951,-2.97674 2.34384,0.62699 3.5662,2.68205 3.17627,5.07676 -0.38994,2.39468 -3.10293,4.03797 -5.44677,3.41103 -2.34382,-0.62697 -3.92432,-3.24056 -3.06901,-5.51105 0,0 0,0 0,0"
     id="path1948" />
  <path
     inkscape:connector-curvature="0"
     style="opacity:1;vector-effect:none;fill:#989cdb;fill-opacity:1;stroke:none;stroke-width:1.4762336;stroke-linecap:round;stroke-linejoin:round;stroke-miterlimit:4;stroke-dasharray:none;stroke-dashoffset:0;stroke-opacity:1;paint-order:normal"
     d="m 72.344953,122.77203 c 1.73019,-1.7009 4.01631,-2.05127 5.94669,-0.58152 1.9304,1.46979 2.18301,3.99543 0.90485,6.05779 -1.27802,2.06238 -4.29712,2.40265 -6.22752,0.93286 -1.9304,-1.46982 -2.35435,-4.70825 -0.62427,-6.40913 0,0 0,0 0,0"
     id="path1946" />
  <path
     inkscape:connector-curvature="0"
     style="opacity:1;vector-effect:none;fill:#2165b6;fill-opacity:1;stroke:none;stroke-width:1.4762336;stroke-linecap:round;stroke-linejoin:round;stroke-miterlimit:4;stroke-dasharray:none;stroke-dashoffset:0;stroke-opacity:1;paint-order:normal"
     d="m 62.118513,107.19137 c 2.28609,-0.81272 4.51063,-0.18575 5.64956,1.95644 1.13893,2.14231 0.31412,4.53829 -1.70702,5.87876 -2.02225,1.34056 -4.91207,0.38791 -6.05097,-1.7543 -1.13894,-2.14231 -0.17762,-5.26818 2.10843,-6.0809 0,0 0,0 0,0"
     id="path1944" />
  <path
     inkscape:connector-curvature="0"
     style="opacity:1;vector-effect:none;fill:#989cdb;fill-opacity:1;stroke:none;stroke-width:1.4762336;stroke-linecap:round;stroke-linejoin:round;stroke-miterlimit:4;stroke-dasharray:none;stroke-dashoffset:0;stroke-opacity:1;paint-order:normal"
     d="m 65.951833,61.89525 c 2.00622,1.36448 2.73578,3.73324 1.57004,5.86111 -1.16576,2.12784 -3.51473,2.80517 -5.74543,1.85089 -2.23072,-0.95427 -3.12594,-3.94459 -1.9602,-6.07243 1.16573,-2.12785 4.1294,-3.0041 6.13559,-1.63957 0,0 0,0 0,0"
     id="path1940" />
  <path
     inkscape:connector-curvature="0"
     style="opacity:1;vector-effect:none;fill:#989cdb;fill-opacity:1;stroke:none;stroke-width:1.4762336;stroke-linecap:round;stroke-linejoin:round;stroke-miterlimit:4;stroke-dasharray:none;stroke-dashoffset:0;stroke-opacity:1;paint-order:normal"
     d="m 79.484413,49.08644 c 1.25796,2.07466 0.92912,4.52456 -1.01613,5.97464 -1.94529,1.45005 -4.37426,1.08274 -6.00242,-0.71613 -1.62813,-1.79886 -1.19398,-4.87826 0.75128,-6.32832 1.94526,-1.45006 5.00931,-1.00486 6.26727,1.06981 0,0 0,0 0,0"
     id="path1938" />
  <path
     inkscape:connector-curvature="0"
     style="opacity:1;vector-effect:none;fill:#2165b6;fill-opacity:1;stroke:none;stroke-width:1.4762336;stroke-linecap:round;stroke-linejoin:round;stroke-miterlimit:4;stroke-dasharray:none;stroke-dashoffset:0;stroke-opacity:1;paint-order:normal"
     d="m 97.142213,43.14708 c 0.2531,2.413 -1.06988,4.49919 -3.44581,4.99083 -2.37592,0.49162 -4.41054,-0.86058 -5.13387,-3.1765 -0.72331,-2.31592 0.97766,-4.93583 3.35356,-5.42743 2.37592,-0.49162 4.97314,1.2001 5.22612,3.6131 0,0 0,0 0,0"
     id="path1936" />
  <path
     inkscape:connector-curvature="0"
     style="opacity:1;vector-effect:none;fill:#2165b6;fill-opacity:1;stroke:none;stroke-width:1.4762336;stroke-linecap:round;stroke-linejoin:round;stroke-miterlimit:4;stroke-dasharray:none;stroke-dashoffset:0;stroke-opacity:1;paint-order:normal"
     d="m 115.67829,45.1051 c -0.71652,2.31801 -2.71992,3.61956 -5.09866,3.14184 -2.37873,-0.47774 -3.69725,-2.62934 -3.46401,-5.04432 0.23327,-2.41503 2.81522,-4.04755 5.19395,-3.56984 2.37874,0.4777 4.08522,3.15431 3.36872,5.47232 0,0 0,0 0,0"
     id="path1934" />
  <path
     inkscape:connector-curvature="0"
     style="opacity:1;vector-effect:none;fill:#989cdb;fill-opacity:1;stroke:none;stroke-width:1.4762336;stroke-linecap:round;stroke-linejoin:round;stroke-miterlimit:4;stroke-dasharray:none;stroke-dashoffset:0;stroke-opacity:1;paint-order:normal"
     d="m 131.68561,54.64006 c -1.6461,1.78245 -4.0674,2.1274 -6.00141,0.66237 -1.934,-1.465 -2.23439,-3.91927 -0.96618,-5.98765 1.26822,-2.06842 4.3375,-2.481 6.27153,-1.01602 1.93398,1.46503 2.34215,4.55887 0.69606,6.3413 0,0 0,0 0,0"
     id="path1932" />
  <path
     inkscape:connector-curvature="0"
     style="opacity:1;vector-effect:none;fill:#2165b6;fill-opacity:1;stroke:none;stroke-width:1.4762336;stroke-linecap:round;stroke-linejoin:round;stroke-miterlimit:4;stroke-dasharray:none;stroke-dashoffset:0;stroke-opacity:1;paint-order:normal"
     d="m 142.22109,70.00923 c -2.2439,0.9228 -4.59967,0.22109 -5.73574,-1.92285 -1.13603,-2.14384 -0.38733,-4.49267 1.63699,-5.83014 2.02432,-1.33747 4.99058,-0.42764 6.12663,1.7162 1.13604,2.14386 0.21597,5.11399 -2.02788,6.03679 0,0 0,0 0,0"
     id="path1930" />
</svg>
