<?xml version="1.0" encoding="UTF-8" standalone="no"?>
<svg
   xmlns:dc="http://purl.org/dc/elements/1.1/"
   xmlns:cc="http://creativecommons.org/ns#"
   xmlns:rdf="http://www.w3.org/1999/02/22-rdf-syntax-ns#"
   xmlns:svg="http://www.w3.org/2000/svg"
   xmlns="http://www.w3.org/2000/svg"
   id="svg8"
   version="1.1"
   viewBox="0 0 43.899937 50.851597"
   height="50.851597mm"
   width="43.899933mm">
  <defs
     id="defs2">
    <clipPath
       id="clipPath16429"
       clipPathUnits="userSpaceOnUse">
      <path
         style="opacity:1;vector-effect:none;fill:#2165b6;fill-opacity:1;fill-rule:nonzero;stroke:none;stroke-width:1.5715543;stroke-linecap:butt;stroke-linejoin:round;stroke-miterlimit:4;stroke-dasharray:none;stroke-dashoffset:0;stroke-opacity:1;paint-order:normal"
         id="path16431"
         d="M 201.08333,-1.3279266 70.566552,-76.68182 l -4e-6,-150.70779 130.516772,-75.35391 130.51678,75.3539 10e-6,150.707793 z"
         transform="matrix(0.16817761,0,0,0.16853807,31.673538,-48.729121)" />
    </clipPath>
    <clipPath
       id="clipPath6975"
       clipPathUnits="userSpaceOnUse">
      <path
         transform="matrix(0.1157537,0,0,0.1160018,54.550292,192.37129)"
         d="M 201.08333,-1.3279266 70.566552,-76.68182 l -4e-6,-150.70779 130.516772,-75.35391 130.51678,75.3539 10e-6,150.707793 z"
         id="path6977"
         style="opacity:0.5;vector-effect:none;fill:#2165b6;fill-opacity:1;fill-rule:nonzero;stroke:none;stroke-width:1.5715543;stroke-linecap:butt;stroke-linejoin:round;stroke-miterlimit:4;stroke-dasharray:none;stroke-dashoffset:0;stroke-opacity:1;paint-order:normal" />
    </clipPath>
    <clipPath
       id="clipPath45"
       clipPathUnits="userSpaceOnUse">
      <path
         transform="matrix(0.16817761,0,0,0.16853807,-11.867746,297.17217)"
         d="M 201.08333,-1.3279266 70.566552,-76.68182 l -4e-6,-150.70779 130.516772,-75.35391 130.51678,75.3539 10e-6,150.707793 z"
         id="path47"
         style="opacity:1;vector-effect:none;fill:#2165b6;fill-opacity:1;fill-rule:nonzero;stroke:none;stroke-width:1.5715543;stroke-linecap:butt;stroke-linejoin:round;stroke-miterlimit:4;stroke-dasharray:none;stroke-dashoffset:0;stroke-opacity:1;paint-order:normal" />
    </clipPath>
  </defs>
  <metadata
     id="metadata5">
    <rdf:RDF>
      <cc:Work
         rdf:about="">
        <dc:format>image/svg+xml</dc:format>
        <dc:type
           rdf:resource="http://purl.org/dc/dcmitype/StillImage" />
        <dc:title></dc:title>
      </cc:Work>
    </rdf:RDF>
  </metadata>
  <g
     transform="translate(0,-246.1484)"
     id="layer1">
    <path
       id="path967"
       d="m 202.7307,283.06691 -102.898913,-1e-5 -51.449455,-89.11308 51.449463,-89.11307 102.898915,0 51.44946,89.11308 z"
       style="opacity:1;vector-effect:none;fill:#2165b6;fill-opacity:1;stroke:none;stroke-width:2.04038;stroke-linecap:round;stroke-linejoin:round;stroke-miterlimit:4;stroke-dasharray:none;stroke-dashoffset:0;stroke-opacity:1;paint-order:normal"
       transform="matrix(0,0.2468442,-0.24631588,0,69.723876,234.2313)" />
    <path
       d="m 14.966027,278.68965 v -14.23083 h 7.313284 q 2.034158,0 3.109356,0.34946 1.075198,0.34947 1.733877,1.30078 0.65868,0.9416 0.65868,2.30061 0,1.18429 -0.503696,2.04823 -0.503696,0.85424 -1.385165,1.38814 -0.561815,0.33975 -1.540148,0.56301 0.784604,0.2621 1.143003,0.52419 0.242162,0.17474 0.697426,0.74746 0.464951,0.57273 0.619933,0.88336 l 2.121338,4.12559 h -4.959472 l -2.344126,-4.34885 q -0.445577,-0.84453 -0.79429,-1.09692 -0.474637,-0.33005 -1.075198,-0.33005 H 19.37337 v 5.77582 z m 4.407343,-8.46473 h 1.850115 q 0.300281,0 1.162377,-0.19414 0.435891,-0.0874 0.707112,-0.44653 0.280907,-0.35917 0.280907,-0.82512 0,-0.68921 -0.43589,-1.05809 -0.435891,-0.36887 -1.637014,-0.36887 H 19.37337 Z"
       style="font-style:normal;font-variant:normal;font-weight:900;font-stretch:normal;font-size:19.85914993px;line-height:1.25;font-family:Arial;-inkscape-font-specification:'Arial, Heavy';font-variant-ligatures:normal;font-variant-caps:normal;font-variant-numeric:normal;font-feature-settings:normal;text-align:start;letter-spacing:0px;word-spacing:0px;writing-mode:lr-tb;text-anchor:start;fill:#ffffff;fill-opacity:1;stroke:none;stroke-width:0.49647844"
       id="path3359" />
    <path
       d="m 6.3143253,274.82212 q 0,0.23629 -0.1491748,0.38579 -0.1443627,0.14949 -0.380155,0.14949 H 3.8890326 q -0.2357923,0 -0.3897791,-0.14949 -0.1491748,-0.1495 -0.1491748,-0.38579 v -1.9145 H 4.018959 v 1.85662 h 1.6264859 v -1.79875 l -2.0788222,-2.51731 q -0.216544,-0.26041 -0.216544,-0.57386 v -1.52871 q 0,-0.23629 0.1491748,-0.38579 0.1539868,-0.14949 0.3897791,-0.14949 h 1.8959629 q 0.2357923,0 0.380155,0.14949 0.1491748,0.1495 0.1491748,0.38579 v 1.75536 H 5.6454449 v -1.69749 H 4.018959 v 1.5914 l 2.0884465,2.5173 q 0.2069198,0.25076 0.2069198,0.56422 z"
       style="font-style:normal;font-variant:normal;font-weight:normal;font-stretch:condensed;font-size:9.86572075px;line-height:1.25;font-family:'Agency FB';-inkscape-font-specification:'Agency FB, Condensed';font-variant-ligatures:normal;font-variant-caps:normal;font-variant-numeric:normal;font-feature-settings:normal;text-align:start;letter-spacing:0px;word-spacing:0px;writing-mode:lr-tb;text-anchor:start;fill:#ffffff;fill-opacity:1;stroke:none;stroke-width:0.24664301"
       id="path3362" />
    <path
       d="M 10.534526,275.3574 H 9.8704585 L 9.6057937,273.6792 H 8.1092341 l -0.2646648,1.6782 h -0.64482 v -0.0193 l 1.3425728,-7.54707 h 0.6592561 z m -1.01535,-2.27135 -0.6592561,-4.08941 -0.6640682,4.08941 z"
       style="font-style:normal;font-variant:normal;font-weight:normal;font-stretch:condensed;font-size:9.86572075px;line-height:1.25;font-family:'Agency FB';-inkscape-font-specification:'Agency FB, Condensed';font-variant-ligatures:normal;font-variant-caps:normal;font-variant-numeric:normal;font-feature-settings:normal;text-align:start;letter-spacing:0px;word-spacing:0px;writing-mode:lr-tb;text-anchor:start;fill:#ffffff;fill-opacity:1;stroke:none;stroke-width:0.24664301"
       id="path3364" />
    <path
       d="m 14.037727,268.40348 h -1.164525 v 6.95392 h -0.66888 v -6.95392 h -1.17415 v -0.59315 h 3.007555 z"
       style="font-style:normal;font-variant:normal;font-weight:normal;font-stretch:condensed;font-size:9.86572075px;line-height:1.25;font-family:'Agency FB';-inkscape-font-specification:'Agency FB, Condensed';font-variant-ligatures:normal;font-variant-caps:normal;font-variant-numeric:normal;font-feature-settings:normal;text-align:start;letter-spacing:0px;word-spacing:0px;writing-mode:lr-tb;text-anchor:start;fill:#ffffff;fill-opacity:1;stroke:none;stroke-width:0.24664301"
       id="path3366" />
    <path
       d="m 32.03771,273.99266 q 0,0.59798 -0.394591,0.98377 -0.389779,0.38097 -0.986479,0.38097 h -1.722727 v -7.54707 h 1.722727 q 0.601511,0 0.991291,0.38579 0.389779,0.38097 0.389779,0.97895 z m -0.66888,-0.0675 v -4.69221 q 0,-0.37133 -0.235792,-0.59798 -0.230981,-0.23148 -0.601512,-0.23148 h -0.928733 v 6.36076 h 0.890237 q 0.389779,0 0.630383,-0.22182 0.245417,-0.22666 0.245417,-0.61727 z"
       style="font-style:normal;font-variant:normal;font-weight:normal;font-stretch:condensed;font-size:9.86572075px;line-height:1.25;font-family:'Agency FB';-inkscape-font-specification:'Agency FB, Condensed';font-variant-ligatures:normal;font-variant-caps:normal;font-variant-numeric:normal;font-feature-settings:normal;text-align:start;letter-spacing:0px;word-spacing:0px;writing-mode:lr-tb;text-anchor:start;fill:#ffffff;fill-opacity:1;stroke:none;stroke-width:0.24664301"
       id="path3369" />
    <path
       d="m 36.243475,275.3574 h -0.664068 l -0.264665,-1.6782 h -1.49656 l -0.264665,1.6782 h -0.64482 v -0.0193 l 1.342573,-7.54707 h 0.659257 z m -1.015351,-2.27135 -0.659256,-4.08941 -0.664068,4.08941 z"
       style="font-style:normal;font-variant:normal;font-weight:normal;font-stretch:condensed;font-size:9.86572075px;line-height:1.25;font-family:'Agency FB';-inkscape-font-specification:'Agency FB, Condensed';font-variant-ligatures:normal;font-variant-caps:normal;font-variant-numeric:normal;font-feature-settings:normal;text-align:start;letter-spacing:0px;word-spacing:0px;writing-mode:lr-tb;text-anchor:start;fill:#ffffff;fill-opacity:1;stroke:none;stroke-width:0.24664301"
       id="path3371" />
    <path
       d="m 40.179764,267.85373 -0.914297,3.05258 q -0.173236,0.45813 -0.457149,1.52871 v 2.92238 h -0.66888 v -2.92238 q -0.06737,-0.3665 -0.206921,-0.77159 -0.230979,-0.69442 -0.250227,-0.75712 l -0.914297,-3.05258 q 0,-0.005 0,-0.0434 h 0.678504 l 1.034599,3.77594 1.024975,-3.77594 h 0.673693 q 0,0.0337 0,0.0434 z"
       style="font-style:normal;font-variant:normal;font-weight:normal;font-stretch:condensed;font-size:9.86572075px;line-height:1.25;font-family:'Agency FB';-inkscape-font-specification:'Agency FB, Condensed';font-variant-ligatures:normal;font-variant-caps:normal;font-variant-numeric:normal;font-feature-settings:normal;text-align:start;letter-spacing:0px;word-spacing:0px;writing-mode:lr-tb;text-anchor:start;fill:#ffffff;fill-opacity:1;stroke:none;stroke-width:0.24664301"
       id="path3373" />
    <path
       id="path1954"
       d="m 30.647071,278.43598 c -0.492285,-0.33957 -0.654173,-0.91594 -0.364245,-1.43965 0.289939,-0.52371 0.885188,-0.67982 1.433453,-0.44149 0.548264,0.23834 0.748931,0.96997 0.459002,1.49367 -0.289933,0.52371 -1.035933,0.72704 -1.52821,0.38747 0,0 0,0 0,0"
       style="opacity:1;vector-effect:none;fill:#989cdb;fill-opacity:1;stroke:none;stroke-width:0.36400953;stroke-linecap:round;stroke-linejoin:round;stroke-miterlimit:4;stroke-dasharray:none;stroke-dashoffset:0;stroke-opacity:1;paint-order:normal" />
    <path
       id="path1952"
       d="m 27.246848,281.52653 c -0.305792,-0.51457 -0.213133,-1.1067 0.268545,-1.46121 0.481686,-0.35451 1.087963,-0.24827 1.486118,0.19836 0.39816,0.44664 0.276603,1.19519 -0.205071,1.54971 -0.481685,0.3545 -1.243804,0.22771 -1.549592,-0.28686 0,0 0,0 0,0"
       style="opacity:1;vector-effect:none;fill:#ffffff;fill-opacity:1;stroke:none;stroke-width:0.36400953;stroke-linecap:round;stroke-linejoin:round;stroke-miterlimit:4;stroke-dasharray:none;stroke-dashoffset:0;stroke-opacity:1;paint-order:normal" />
    <path
       id="path1950"
       d="m 22.86796,282.90317 c -0.05446,-0.59641 0.277984,-1.09923 0.86462,-1.21354 0.586641,-0.11428 1.085058,0.23402 1.257093,0.80757 0.172029,0.57356 -0.257437,1.2071 -0.844073,1.32139 -0.586636,0.11428 -1.223212,-0.31901 -1.27764,-0.91542 0,0 0,0 0,0"
       style="opacity:1;vector-effect:none;fill:#ffffff;fill-opacity:1;stroke:none;stroke-width:0.36400953;stroke-linecap:round;stroke-linejoin:round;stroke-miterlimit:4;stroke-dasharray:none;stroke-dashoffset:0;stroke-opacity:1;paint-order:normal" />
    <path
       id="path1948"
       d="m 18.314621,282.324 c 0.210684,-0.56046 0.737879,-0.88956 1.315206,-0.73479 0.577325,0.15476 0.878412,0.66204 0.782366,1.25316 -0.09605,0.59112 -0.764304,0.99675 -1.341626,0.842 -0.577323,-0.15477 -0.966623,-0.79992 -0.755946,-1.36037 0,0 0,0 0,0"
       style="opacity:1;vector-effect:none;fill:#989cdb;fill-opacity:1;stroke:none;stroke-width:0.36400953;stroke-linecap:round;stroke-linejoin:round;stroke-miterlimit:4;stroke-dasharray:none;stroke-dashoffset:0;stroke-opacity:1;paint-order:normal" />
    <path
       id="path1946"
       d="m 14.424044,279.88272 c 0.426174,-0.41986 0.989279,-0.50635 1.464765,-0.14355 0.475488,0.36281 0.537707,0.98625 0.222878,1.49533 -0.314796,0.50909 -1.058448,0.59308 -1.533937,0.23027 -0.475488,-0.36281 -0.579913,-1.1622 -0.15377,-1.58205 0,0 0,0 0,0"
       style="opacity:1;vector-effect:none;fill:#989cdb;fill-opacity:1;stroke:none;stroke-width:0.36400953;stroke-linecap:round;stroke-linejoin:round;stroke-miterlimit:4;stroke-dasharray:none;stroke-dashoffset:0;stroke-opacity:1;paint-order:normal" />
    <path
       id="path1944"
       d="m 11.90511,276.03672 c 0.5631,-0.20061 1.11104,-0.0459 1.391574,0.48294 0.280536,0.52881 0.07737,1.12025 -0.420464,1.45114 -0.498112,0.33091 -1.209923,0.0958 -1.49045,-0.43304 -0.280541,-0.52882 -0.04375,-1.30042 0.51934,-1.50104 0,0 0,0 0,0"
       style="opacity:1;vector-effect:none;fill:#ffffff;fill-opacity:1;stroke:none;stroke-width:0.36400953;stroke-linecap:round;stroke-linejoin:round;stroke-miterlimit:4;stroke-dasharray:none;stroke-dashoffset:0;stroke-opacity:1;paint-order:normal" />
    <path
       id="path1940"
       d="m 12.849317,264.85564 c 0.494164,0.33681 0.673864,0.92153 0.386724,1.44678 -0.287145,0.52524 -0.865732,0.69244 -1.415191,0.45688 -0.549459,-0.23556 -0.769966,-0.9737 -0.482828,-1.49894 0.287137,-0.52525 1.017136,-0.74155 1.511295,-0.40472 0,0 0,0 0,0"
       style="opacity:1;vector-effect:none;fill:#989cdb;fill-opacity:1;stroke:none;stroke-width:0.36400953;stroke-linecap:round;stroke-linejoin:round;stroke-miterlimit:4;stroke-dasharray:none;stroke-dashoffset:0;stroke-opacity:1;paint-order:normal" />
    <path
       id="path1938"
       d="m 16.182604,261.69386 c 0.309858,0.51212 0.22886,1.11686 -0.250289,1.4748 -0.479153,0.35794 -1.077447,0.26727 -1.478489,-0.17677 -0.401034,-0.44404 -0.294096,-1.20417 0.18505,-1.56211 0.479151,-0.35794 1.233875,-0.24804 1.543728,0.26408 0,0 0,0 0,0"
       style="opacity:1;vector-effect:none;fill:#989cdb;fill-opacity:1;stroke:none;stroke-width:0.36400953;stroke-linecap:round;stroke-linejoin:round;stroke-miterlimit:4;stroke-dasharray:none;stroke-dashoffset:0;stroke-opacity:1;paint-order:normal" />
    <path
       id="path1936"
       d="m 20.532003,260.22776 c 0.06234,0.59564 -0.263528,1.1106 -0.848757,1.23196 -0.585227,0.12135 -1.086386,-0.21243 -1.264554,-0.7841 -0.178163,-0.57167 0.240813,-1.21838 0.826035,-1.33973 0.585224,-0.12136 1.224963,0.29624 1.287276,0.89187 0,0 0,0 0,0"
       style="opacity:1;vector-effect:none;fill:#ffffff;fill-opacity:1;stroke:none;stroke-width:0.36400953;stroke-linecap:round;stroke-linejoin:round;stroke-miterlimit:4;stroke-dasharray:none;stroke-dashoffset:0;stroke-opacity:1;paint-order:normal" />
    <path
       id="path1934"
       d="m 25.097734,260.71109 c -0.17649,0.57218 -0.669959,0.89346 -1.255881,0.77554 -0.585919,-0.11793 -0.910691,-0.64904 -0.85324,-1.24516 0.05746,-0.59614 0.693433,-0.99911 1.279352,-0.88119 0.585921,0.11791 1.006254,0.77862 0.829769,1.35081 0,0 0,0 0,0"
       style="opacity:1;vector-effect:none;fill:#ffffff;fill-opacity:1;stroke:none;stroke-width:0.36400953;stroke-linecap:round;stroke-linejoin:round;stroke-miterlimit:4;stroke-dasharray:none;stroke-dashoffset:0;stroke-opacity:1;paint-order:normal" />
    <path
       id="path1932"
       d="m 29.040591,263.06474 c -0.40546,0.43998 -1.001865,0.52513 -1.478242,0.1635 -0.476375,-0.36163 -0.550366,-0.96745 -0.237986,-1.47802 0.312383,-0.51058 1.068395,-0.61242 1.544778,-0.2508 0.47637,0.36164 0.576908,1.12533 0.17145,1.56532 0,0 0,0 0,0"
       style="opacity:1;vector-effect:none;fill:#989cdb;fill-opacity:1;stroke:none;stroke-width:0.36400953;stroke-linecap:round;stroke-linejoin:round;stroke-miterlimit:4;stroke-dasharray:none;stroke-dashoffset:0;stroke-opacity:1;paint-order:normal" />
    <path
       id="path1930"
       d="m 31.635647,266.85853 c -0.552708,0.22778 -1.132971,0.0546 -1.412804,-0.47465 -0.279822,-0.52919 -0.0954,-1.10899 0.403217,-1.43913 0.498622,-0.33015 1.229259,-0.10556 1.509086,0.42363 0.279825,0.5292 0.0532,1.26236 -0.499499,1.49015 0,0 0,0 0,0"
       style="opacity:1;vector-effect:none;fill:#ffffff;fill-opacity:1;stroke:none;stroke-width:0.36400953;stroke-linecap:round;stroke-linejoin:round;stroke-miterlimit:4;stroke-dasharray:none;stroke-dashoffset:0;stroke-opacity:1;paint-order:normal" />
  </g>
</svg>
