<?xml version="1.0" encoding="UTF-8" standalone="no"?>
<!-- Created with Inkscape (http://www.inkscape.org/) -->

<svg
   xmlns:dc="http://purl.org/dc/elements/1.1/"
   xmlns:cc="http://creativecommons.org/ns#"
   xmlns:rdf="http://www.w3.org/1999/02/22-rdf-syntax-ns#"
   xmlns:svg="http://www.w3.org/2000/svg"
   xmlns="http://www.w3.org/2000/svg"
   xmlns:sodipodi="http://sodipodi.sourceforge.net/DTD/sodipodi-0.dtd"
   xmlns:inkscape="http://www.inkscape.org/namespaces/inkscape"
   width="29.700001cm"
   height="21cm"
   viewBox="0 0 297 210"
   version="1.1"
   id="svg8"
   sodipodi:docname="Banner.svg"
   inkscape:version="0.92.1 r15371">
  <defs
     id="defs2" />
  <sodipodi:namedview
     id="base"
     pagecolor="#ffffff"
     bordercolor="#666666"
     borderopacity="1.0"
     inkscape:pageopacity="0.0"
     inkscape:pageshadow="2"
     inkscape:zoom="0.35"
     inkscape:cx="400"
     inkscape:cy="560"
     inkscape:document-units="px"
     inkscape:current-layer="layer1"
     showgrid="false"
     units="cm"
     inkscape:showpageshadow="false"
     borderlayer="true"
     inkscape:snap-path-clip="true"
     inkscape:snap-path-mask="true"
     inkscape:pagecheckerboard="true"
     showguides="true"
     inkscape:guide-bbox="true"
     showborder="false" />
  <metadata
     id="metadata5">
    <rdf:RDF>
      <cc:Work
         rdf:about="">
        <dc:format>image/svg+xml</dc:format>
        <dc:type
           rdf:resource="http://purl.org/dc/dcmitype/StillImage" />
        <dc:title></dc:title>
      </cc:Work>
    </rdf:RDF>
  </metadata>
  <g
     inkscape:label="Layer 1"
     inkscape:groupmode="layer"
     id="layer1"
     transform="translate(0,-87)">
    <rect
       style="opacity:1;vector-effect:none;fill:#ffffff;fill-opacity:1;stroke:none;stroke-width:0.80438221;stroke-linecap:round;stroke-linejoin:round;stroke-miterlimit:4;stroke-dasharray:none;stroke-dashoffset:0;stroke-opacity:1;paint-order:normal"
       id="rect2004"
       width="443.44168"
       height="129.64583"
       x="-94.280502"
       y="127.17709"
       inkscape:export-xdpi="96"
       inkscape:export-ydpi="96" />
    <g
       id="g2103"
       transform="matrix(0.8089135,0,0,0.8089135,42.336744,30.024699)">
      <path
         inkscape:export-ydpi="96"
         inkscape:export-xdpi="96"
         sodipodi:type="star"
         style="opacity:1;vector-effect:none;fill:#2165b6;fill-opacity:1;stroke:none;stroke-width:1.31341529;stroke-linecap:round;stroke-linejoin:round;stroke-miterlimit:4;stroke-dasharray:none;stroke-dashoffset:0;stroke-opacity:1;paint-order:normal"
         id="path967"
         sodipodi:sides="6"
         sodipodi:cx="271.00894"
         sodipodi:cy="200.2381"
         sodipodi:r1="66.237175"
         sodipodi:r2="57.363075"
         sodipodi:arg1="1.0471976"
         sodipodi:arg2="1.5707963"
         inkscape:flatsided="true"
         inkscape:rounded="0"
         inkscape:randomized="0"
         d="m 304.12753,257.60118 -66.23718,-10e-6 -33.11858,-57.36308 33.11859,-57.36307 66.23717,0 33.11859,57.36308 z"
         inkscape:transform-center-x="1.4614599e-005"
         inkscape:transform-center-y="8.6827849e-006" />
      <text
         xml:space="preserve"
         style="font-style:normal;font-variant:normal;font-weight:900;font-stretch:normal;font-size:51.84345627px;line-height:1.25;font-family:Arial;-inkscape-font-specification:'Arial, Heavy';font-variant-ligatures:normal;font-variant-caps:normal;font-variant-numeric:normal;font-feature-settings:normal;text-align:start;letter-spacing:0px;word-spacing:0px;writing-mode:lr-tb;text-anchor:start;fill:#ffffff;fill-opacity:1;stroke:none;stroke-width:1.2960856"
         x="248.8084"
         y="218.7934"
         id="text971"><tspan
           sodipodi:role="line"
           id="tspan969"
           x="248.8084"
           y="218.7934"
           style="font-style:normal;font-variant:normal;font-weight:900;font-stretch:normal;font-size:51.84345627px;font-family:Arial;-inkscape-font-specification:'Arial, Heavy';font-variant-ligatures:normal;font-variant-caps:normal;font-variant-numeric:normal;font-feature-settings:normal;text-align:start;writing-mode:lr-tb;text-anchor:start;fill:#ffffff;stroke-width:1.2960856">R</tspan></text>
      <text
         xml:space="preserve"
         style="font-style:normal;font-variant:normal;font-weight:normal;font-stretch:condensed;font-size:25.75503349px;line-height:1.25;font-family:'Agency FB';-inkscape-font-specification:'Agency FB, Condensed';font-variant-ligatures:normal;font-variant-caps:normal;font-variant-numeric:normal;font-feature-settings:normal;text-align:start;letter-spacing:0px;word-spacing:0px;writing-mode:lr-tb;text-anchor:start;fill:#ffffff;fill-opacity:1;stroke:none;stroke-width:0.64387578"
         x="220.9043"
         y="210.10373"
         id="text975"><tspan
           sodipodi:role="line"
           id="tspan973"
           x="220.9043"
           y="210.10373"
           style="font-style:normal;font-variant:normal;font-weight:normal;font-stretch:condensed;font-size:25.75503349px;font-family:'Agency FB';-inkscape-font-specification:'Agency FB, Condensed';font-variant-ligatures:normal;font-variant-caps:normal;font-variant-numeric:normal;font-feature-settings:normal;text-align:start;writing-mode:lr-tb;text-anchor:start;fill:#ffffff;stroke-width:0.64387578">SAT</tspan></text>
      <text
         xml:space="preserve"
         style="font-style:normal;font-variant:normal;font-weight:normal;font-stretch:condensed;font-size:25.75503349px;line-height:1.25;font-family:'Agency FB';-inkscape-font-specification:'Agency FB, Condensed';font-variant-ligatures:normal;font-variant-caps:normal;font-variant-numeric:normal;font-feature-settings:normal;text-align:start;letter-spacing:0px;word-spacing:0px;writing-mode:lr-tb;text-anchor:start;fill:#ffffff;fill-opacity:1;stroke:none;stroke-width:0.64387578"
         x="287.68851"
         y="210.10373"
         id="text979"><tspan
           sodipodi:role="line"
           id="tspan977"
           x="287.68851"
           y="210.10373"
           style="font-style:normal;font-variant:normal;font-weight:normal;font-stretch:condensed;font-size:25.75503349px;font-family:'Agency FB';-inkscape-font-specification:'Agency FB, Condensed';font-variant-ligatures:normal;font-variant-caps:normal;font-variant-numeric:normal;font-feature-settings:normal;text-align:start;writing-mode:lr-tb;text-anchor:start;fill:#ffffff;stroke-width:0.64387578">DAY</tspan></text>
      <path
         inkscape:connector-curvature="0"
         id="path1954"
         d="m 293.73756,218.13196 c -1.28651,-0.88552 -1.70958,-2.38856 -0.9519,-3.75426 0.75771,-1.36571 2.31331,-1.77283 3.74612,-1.15131 1.43281,0.62153 1.95723,2.52945 1.19954,3.89514 -0.7577,1.36571 -2.70726,1.89594 -3.99376,1.01043 0,0 0,0 0,0"
         style="opacity:1;vector-effect:none;fill:#989cdb;fill-opacity:1;stroke:none;stroke-width:0.95026797;stroke-linecap:round;stroke-linejoin:round;stroke-miterlimit:4;stroke-dasharray:none;stroke-dashoffset:0;stroke-opacity:1;paint-order:normal" />
      <path
         inkscape:connector-curvature="0"
         id="path1952"
         d="m 284.85157,226.19137 c -0.79914,-1.34187 -0.55699,-2.88601 0.7018,-3.81049 1.25882,-0.92448 2.84324,-0.64743 3.88376,0.51729 1.04053,1.16471 0.72286,3.11677 -0.53592,4.04126 -1.25882,0.92447 -3.25051,0.59382 -4.04964,-0.74806 0,0 0,0 0,0"
         style="opacity:1;vector-effect:none;fill:#ffffff;fill-opacity:1;stroke:none;stroke-width:0.95026797;stroke-linecap:round;stroke-linejoin:round;stroke-miterlimit:4;stroke-dasharray:none;stroke-dashoffset:0;stroke-opacity:1;paint-order:normal" />
      <path
         inkscape:connector-curvature="0"
         id="path1950"
         d="m 273.40797,229.78131 c -0.14231,-1.5553 0.72648,-2.86653 2.25957,-3.16461 1.5331,-0.29803 2.83564,0.61026 3.28523,2.10596 0.44957,1.49571 -0.67278,3.14781 -2.20587,3.44586 -1.53308,0.29803 -3.19668,-0.83189 -3.33893,-2.38721 0,0 0,0 0,0"
         style="opacity:1;vector-effect:none;fill:#ffffff;fill-opacity:1;stroke:none;stroke-width:0.95026797;stroke-linecap:round;stroke-linejoin:round;stroke-miterlimit:4;stroke-dasharray:none;stroke-dashoffset:0;stroke-opacity:1;paint-order:normal" />
      <path
         inkscape:connector-curvature="0"
         id="path1948"
         d="m 261.50848,228.27097 c 0.55059,-1.46154 1.92834,-2.31975 3.4371,-1.91616 1.50876,0.4036 2.2956,1.72647 2.0446,3.26797 -0.25101,1.54148 -1.99739,2.59928 -3.50615,2.19572 -1.50874,-0.40359 -2.52612,-2.08599 -1.97555,-3.54753 0,0 0,0 0,0"
         style="opacity:1;vector-effect:none;fill:#989cdb;fill-opacity:1;stroke:none;stroke-width:0.95026797;stroke-linecap:round;stroke-linejoin:round;stroke-miterlimit:4;stroke-dasharray:none;stroke-dashoffset:0;stroke-opacity:1;paint-order:normal" />
      <path
         inkscape:connector-curvature="0"
         id="path1946"
         d="m 251.34102,221.9047 c 1.11374,-1.09489 2.58534,-1.32042 3.82795,-0.37433 1.24262,0.94612 1.40523,2.5719 0.58246,3.89947 -0.82268,1.32757 -2.7661,1.54661 -4.00872,0.60049 -1.24262,-0.94614 -1.51553,-3.03075 -0.40185,-4.12563 0,0 0,0 0,0"
         style="opacity:1;vector-effect:none;fill:#989cdb;fill-opacity:1;stroke:none;stroke-width:0.95026797;stroke-linecap:round;stroke-linejoin:round;stroke-miterlimit:4;stroke-dasharray:none;stroke-dashoffset:0;stroke-opacity:1;paint-order:normal" />
      <path
         inkscape:connector-curvature="0"
         id="path1944"
         d="m 244.75814,211.87526 c 1.47159,-0.52316 2.90355,-0.11957 3.63669,1.25938 0.73314,1.37903 0.2022,2.92135 -1.09883,3.78422 -1.30174,0.86294 -3.16195,0.2497 -3.89508,-1.12926 -0.73314,-1.37903 -0.11433,-3.39119 1.35722,-3.91434 0,0 0,0 0,0"
         style="opacity:1;vector-effect:none;fill:#ffffff;fill-opacity:1;stroke:none;stroke-width:0.95026797;stroke-linecap:round;stroke-linejoin:round;stroke-miterlimit:4;stroke-dasharray:none;stroke-dashoffset:0;stroke-opacity:1;paint-order:normal" />
      <path
         id="path1940"
         d="m 247.22569,182.71764 c 1.29143,0.87833 1.76106,2.40313 1.01066,3.77286 -0.75042,1.36972 -2.26247,1.80572 -3.6984,1.19144 -1.43594,-0.61427 -2.0122,-2.53918 -1.2618,-3.90889 0.75039,-1.36972 2.65814,-1.93377 3.94954,-1.05541 0,0 0,0 0,0"
         style="opacity:1;vector-effect:none;fill:#989cdb;fill-opacity:1;stroke:none;stroke-width:0.95026797;stroke-linecap:round;stroke-linejoin:round;stroke-miterlimit:4;stroke-dasharray:none;stroke-dashoffset:0;stroke-opacity:1;paint-order:normal"
         inkscape:connector-curvature="0" />
      <path
         id="path1938"
         d="m 255.93677,174.47247 c 0.80976,1.33548 0.59808,2.91251 -0.6541,3.84594 -1.2522,0.93341 -2.81576,0.69697 -3.86382,-0.46098 -1.04805,-1.15795 -0.76858,-3.14019 0.48361,-4.07361 1.25218,-0.93342 3.22454,-0.64684 4.03431,0.68865 0,0 0,0 0,0"
         style="opacity:1;vector-effect:none;fill:#989cdb;fill-opacity:1;stroke:none;stroke-width:0.95026797;stroke-linecap:round;stroke-linejoin:round;stroke-miterlimit:4;stroke-dasharray:none;stroke-dashoffset:0;stroke-opacity:1;paint-order:normal"
         inkscape:connector-curvature="0" />
      <path
         id="path1936"
         d="m 267.30329,170.64924 c 0.16292,1.55327 -0.68869,2.89617 -2.21811,3.21265 -1.5294,0.31646 -2.83911,-0.55397 -3.30473,-2.04475 -0.4656,-1.49078 0.62933,-3.17725 2.15873,-3.4937 1.5294,-0.31646 3.20126,0.77252 3.36411,2.3258 0,0 0,0 0,0"
         style="opacity:1;vector-effect:none;fill:#ffffff;fill-opacity:1;stroke:none;stroke-width:0.95026797;stroke-linecap:round;stroke-linejoin:round;stroke-miterlimit:4;stroke-dasharray:none;stroke-dashoffset:0;stroke-opacity:1;paint-order:normal"
         inkscape:connector-curvature="0" />
      <path
         id="path1934"
         d="m 279.23517,171.90963 c -0.46123,1.49213 -1.75084,2.32996 -3.28206,2.02244 -1.53122,-0.30752 -2.37997,-1.69253 -2.22983,-3.24708 0.15016,-1.55458 1.81219,-2.60546 3.34341,-2.29795 1.53122,0.3075 2.6297,2.03047 2.16848,3.52259 0,0 0,0 0,0"
         style="opacity:1;vector-effect:none;fill:#ffffff;fill-opacity:1;stroke:none;stroke-width:0.95026797;stroke-linecap:round;stroke-linejoin:round;stroke-miterlimit:4;stroke-dasharray:none;stroke-dashoffset:0;stroke-opacity:1;paint-order:normal"
         inkscape:connector-curvature="0" />
      <path
         id="path1932"
         d="m 289.53926,178.04739 c -1.05961,1.14739 -2.61823,1.36944 -3.86318,0.42638 -1.24493,-0.94304 -1.4383,-2.52288 -0.62194,-3.85432 0.81637,-1.33146 2.7921,-1.59704 4.03706,-0.65402 1.24492,0.94306 1.50767,2.93459 0.44806,4.08196 0,0 0,0 0,0"
         style="opacity:1;vector-effect:none;fill:#989cdb;fill-opacity:1;stroke:none;stroke-width:0.95026797;stroke-linecap:round;stroke-linejoin:round;stroke-miterlimit:4;stroke-dasharray:none;stroke-dashoffset:0;stroke-opacity:1;paint-order:normal"
         inkscape:connector-curvature="0" />
      <path
         id="path1930"
         d="m 296.32106,187.9407 c -1.44442,0.59402 -2.96085,0.14232 -3.69215,-1.23776 -0.73128,-1.38001 -0.24933,-2.89198 1.05374,-3.75293 1.30308,-0.86094 3.2125,-0.27527 3.94378,1.10474 0.73129,1.38003 0.13903,3.29193 -1.30537,3.88595 0,0 0,0 0,0"
         style="opacity:1;vector-effect:none;fill:#ffffff;fill-opacity:1;stroke:none;stroke-width:0.95026797;stroke-linecap:round;stroke-linejoin:round;stroke-miterlimit:4;stroke-dasharray:none;stroke-dashoffset:0;stroke-opacity:1;paint-order:normal"
         inkscape:connector-curvature="0" />
    </g>
  </g>
</svg>
