<?xml version="1.0" encoding="UTF-8" standalone="no"?>
<!-- Created with Inkscape (http://www.inkscape.org/) -->

<svg
   xmlns:dc="http://purl.org/dc/elements/1.1/"
   xmlns:cc="http://creativecommons.org/ns#"
   xmlns:rdf="http://www.w3.org/1999/02/22-rdf-syntax-ns#"
   xmlns:svg="http://www.w3.org/2000/svg"
   xmlns="http://www.w3.org/2000/svg"
   xmlns:sodipodi="http://sodipodi.sourceforge.net/DTD/sodipodi-0.dtd"
   xmlns:inkscape="http://www.inkscape.org/namespaces/inkscape"
   inkscape:version="0.92.3 (2405546, 2018-03-11)"
   sodipodi:docname="satRday Logo NoHexWhite.svg"
   id="svg8"
   version="1.1"
   viewBox="0 0 205.79784 178.22617"
   height="17.822617cm"
   width="20.579784cm">
  <sodipodi:namedview
     inkscape:pagecheckerboard="true"
     inkscape:snap-path-mask="true"
     inkscape:snap-path-clip="true"
     borderlayer="true"
     inkscape:showpageshadow="false"
     units="cm"
     showgrid="false"
     inkscape:current-layer="layer1"
     inkscape:document-units="px"
     inkscape:cy="975.973"
     inkscape:cx="392.85714"
     inkscape:zoom="0.35"
     inkscape:pageshadow="2"
     inkscape:pageopacity="0.0"
     borderopacity="1.0"
     bordercolor="#666666"
     pagecolor="#ffffff"
     id="base"
     showguides="true"
     inkscape:guide-bbox="true"
     inkscape:window-width="1366"
     inkscape:window-height="705"
     inkscape:window-x="2552"
     inkscape:window-y="32"
     inkscape:window-maximized="1" />
  <defs
     id="defs2" />
  <metadata
     id="metadata5">
    <rdf:RDF>
      <cc:Work
         rdf:about="">
        <dc:format>image/svg+xml</dc:format>
        <dc:type
           rdf:resource="http://purl.org/dc/dcmitype/StillImage" />
        <dc:title></dc:title>
      </cc:Work>
    </rdf:RDF>
  </metadata>
  <g
     transform="translate(-48.382347,-104.8407)"
     id="layer1"
     inkscape:groupmode="layer"
     inkscape:label="Layer 1">
    <text
       id="text971"
       y="222.77933"
       x="116.7929"
       style="font-style:normal;font-variant:normal;font-weight:900;font-stretch:normal;font-size:80.53839111px;line-height:1.25;font-family:Arial;-inkscape-font-specification:'Arial, Heavy';font-variant-ligatures:normal;font-variant-caps:normal;font-variant-numeric:normal;font-feature-settings:normal;text-align:start;letter-spacing:0px;word-spacing:0px;writing-mode:lr-tb;text-anchor:start;fill:#ffffff;fill-opacity:1;stroke:none;stroke-width:2.01345849"
       xml:space="preserve"><tspan
         style="font-style:normal;font-variant:normal;font-weight:900;font-stretch:normal;font-size:80.53839111px;font-family:Arial;-inkscape-font-specification:'Arial, Heavy';font-variant-ligatures:normal;font-variant-caps:normal;font-variant-numeric:normal;font-feature-settings:normal;text-align:start;writing-mode:lr-tb;text-anchor:start;fill:#ffffff;stroke-width:2.01345849"
         y="222.77933"
         x="116.7929"
         id="tspan969"
         sodipodi:role="line">R</tspan></text>
    <text
       id="text975"
       y="209.28001"
       x="73.444099"
       style="font-style:normal;font-variant:normal;font-weight:normal;font-stretch:condensed;font-size:40.01023483px;line-height:1.25;font-family:'Agency FB';-inkscape-font-specification:'Agency FB, Condensed';font-variant-ligatures:normal;font-variant-caps:normal;font-variant-numeric:normal;font-feature-settings:normal;text-align:start;letter-spacing:0px;word-spacing:0px;writing-mode:lr-tb;text-anchor:start;fill:#ffffff;fill-opacity:1;stroke:none;stroke-width:1.00025582"
       xml:space="preserve"><tspan
         style="font-style:normal;font-variant:normal;font-weight:normal;font-stretch:condensed;font-size:40.01023483px;font-family:'Agency FB';-inkscape-font-specification:'Agency FB, Condensed';font-variant-ligatures:normal;font-variant-caps:normal;font-variant-numeric:normal;font-feature-settings:normal;text-align:start;writing-mode:lr-tb;text-anchor:start;fill:#ffffff;stroke-width:1.00025582"
         y="209.28001"
         x="73.444099"
         id="tspan973"
         sodipodi:role="line">SAT</tspan></text>
    <text
       id="text979"
       y="209.28001"
       x="177.19283"
       style="font-style:normal;font-variant:normal;font-weight:normal;font-stretch:condensed;font-size:40.01023483px;line-height:1.25;font-family:'Agency FB';-inkscape-font-specification:'Agency FB, Condensed';font-variant-ligatures:normal;font-variant-caps:normal;font-variant-numeric:normal;font-feature-settings:normal;text-align:start;letter-spacing:0px;word-spacing:0px;writing-mode:lr-tb;text-anchor:start;fill:#ffffff;fill-opacity:1;stroke:none;stroke-width:1.00025582"
       xml:space="preserve"><tspan
         style="font-style:normal;font-variant:normal;font-weight:normal;font-stretch:condensed;font-size:40.01023483px;font-family:'Agency FB';-inkscape-font-specification:'Agency FB, Condensed';font-variant-ligatures:normal;font-variant-caps:normal;font-variant-numeric:normal;font-feature-settings:normal;text-align:start;writing-mode:lr-tb;text-anchor:start;fill:#ffffff;stroke-width:1.00025582"
         y="209.28001"
         x="177.19283"
         id="tspan977"
         sodipodi:role="line">DAY</tspan></text>
    <path
       style="opacity:1;vector-effect:none;fill:#989cdb;fill-opacity:1;stroke:none;stroke-width:1.4762336;stroke-linecap:round;stroke-linejoin:round;stroke-miterlimit:4;stroke-dasharray:none;stroke-dashoffset:0;stroke-opacity:1;paint-order:normal"
       d="m 186.58999,221.7518 c -1.99859,-1.37564 -2.65583,-3.7106 -1.47877,-5.83221 1.1771,-2.12162 3.59371,-2.75407 5.81957,-1.78855 2.22586,0.96555 3.04053,3.92948 1.86347,6.05107 -1.17708,2.12162 -4.20571,2.94533 -6.20427,1.56969 0,0 0,0 0,0"
       id="path1954"
       inkscape:connector-curvature="0" />
    <path
       style="opacity:1;vector-effect:none;fill:#ffffff;fill-opacity:1;stroke:none;stroke-width:1.4762336;stroke-linecap:round;stroke-linejoin:round;stroke-miterlimit:4;stroke-dasharray:none;stroke-dashoffset:0;stroke-opacity:1;paint-order:normal"
       d="m 172.78567,234.27203 c -1.24146,-2.08458 -0.86528,-4.48338 1.09025,-5.91956 1.95556,-1.43617 4.41694,-1.00577 6.03338,0.80361 1.61646,1.80937 1.12296,4.84188 -0.83255,6.27806 -1.95556,1.43615 -5.04963,0.92249 -6.29108,-1.16211 0,0 0,0 0,0"
       id="path1952"
       inkscape:connector-curvature="0" />
    <path
       style="opacity:1;vector-effect:none;fill:#ffffff;fill-opacity:1;stroke:none;stroke-width:1.4762336;stroke-linecap:round;stroke-linejoin:round;stroke-miterlimit:4;stroke-dasharray:none;stroke-dashoffset:0;stroke-opacity:1;paint-order:normal"
       d="m 155.00814,239.84898 c -0.22108,-2.41614 1.12857,-4.45313 3.51021,-4.9162 2.38166,-0.46298 4.40515,0.94804 5.10358,3.27159 0.69841,2.32357 -1.04515,4.8901 -3.42679,5.35312 -2.38164,0.46298 -4.96603,-1.29234 -5.187,-3.70851 0,0 0,0 0,0"
       id="path1950"
       inkscape:connector-curvature="0" />
    <path
       style="opacity:1;vector-effect:none;fill:#989cdb;fill-opacity:1;stroke:none;stroke-width:1.4762336;stroke-linecap:round;stroke-linejoin:round;stroke-miterlimit:4;stroke-dasharray:none;stroke-dashoffset:0;stroke-opacity:1;paint-order:normal"
       d="m 136.52237,237.50268 c 0.85534,-2.27049 2.99566,-3.60371 5.33951,-2.97674 2.34384,0.62699 3.5662,2.68205 3.17627,5.07676 -0.38994,2.39468 -3.10293,4.03797 -5.44677,3.41103 -2.34382,-0.62697 -3.92432,-3.24056 -3.06901,-5.51105 0,0 0,0 0,0"
       id="path1948"
       inkscape:connector-curvature="0" />
    <path
       style="opacity:1;vector-effect:none;fill:#989cdb;fill-opacity:1;stroke:none;stroke-width:1.4762336;stroke-linecap:round;stroke-linejoin:round;stroke-miterlimit:4;stroke-dasharray:none;stroke-dashoffset:0;stroke-opacity:1;paint-order:normal"
       d="m 120.7273,227.61273 c 1.73019,-1.7009 4.01631,-2.05127 5.94669,-0.58152 1.9304,1.46979 2.18301,3.99543 0.90485,6.05779 -1.27802,2.06238 -4.29712,2.40265 -6.22752,0.93286 -1.9304,-1.46982 -2.35435,-4.70825 -0.62427,-6.40913 0,0 0,0 0,0"
       id="path1946"
       inkscape:connector-curvature="0" />
    <path
       style="opacity:1;vector-effect:none;fill:#ffffff;fill-opacity:1;stroke:none;stroke-width:1.4762336;stroke-linecap:round;stroke-linejoin:round;stroke-miterlimit:4;stroke-dasharray:none;stroke-dashoffset:0;stroke-opacity:1;paint-order:normal"
       d="m 110.50086,212.03207 c 2.28609,-0.81272 4.51063,-0.18575 5.64956,1.95644 1.13893,2.14231 0.31412,4.53829 -1.70702,5.87876 -2.02225,1.34056 -4.91207,0.38791 -6.05097,-1.7543 -1.13894,-2.14231 -0.17762,-5.26818 2.10843,-6.0809 0,0 0,0 0,0"
       id="path1944"
       inkscape:connector-curvature="0" />
    <path
       inkscape:connector-curvature="0"
       style="opacity:1;vector-effect:none;fill:#989cdb;fill-opacity:1;stroke:none;stroke-width:1.4762336;stroke-linecap:round;stroke-linejoin:round;stroke-miterlimit:4;stroke-dasharray:none;stroke-dashoffset:0;stroke-opacity:1;paint-order:normal"
       d="m 114.33418,166.73595 c 2.00622,1.36448 2.73578,3.73324 1.57004,5.86111 -1.16576,2.12784 -3.51473,2.80517 -5.74543,1.85089 -2.23072,-0.95427 -3.12594,-3.94459 -1.9602,-6.07243 1.16573,-2.12785 4.1294,-3.0041 6.13559,-1.63957 0,0 0,0 0,0"
       id="path1940" />
    <path
       inkscape:connector-curvature="0"
       style="opacity:1;vector-effect:none;fill:#989cdb;fill-opacity:1;stroke:none;stroke-width:1.4762336;stroke-linecap:round;stroke-linejoin:round;stroke-miterlimit:4;stroke-dasharray:none;stroke-dashoffset:0;stroke-opacity:1;paint-order:normal"
       d="m 127.86676,153.92714 c 1.25796,2.07466 0.92912,4.52456 -1.01613,5.97464 -1.94529,1.45005 -4.37426,1.08274 -6.00242,-0.71613 -1.62813,-1.79886 -1.19398,-4.87826 0.75128,-6.32832 1.94526,-1.45006 5.00931,-1.00486 6.26727,1.06981 0,0 0,0 0,0"
       id="path1938" />
    <path
       inkscape:connector-curvature="0"
       style="opacity:1;vector-effect:none;fill:#ffffff;fill-opacity:1;stroke:none;stroke-width:1.4762336;stroke-linecap:round;stroke-linejoin:round;stroke-miterlimit:4;stroke-dasharray:none;stroke-dashoffset:0;stroke-opacity:1;paint-order:normal"
       d="m 145.52456,147.98778 c 0.2531,2.413 -1.06988,4.49919 -3.44581,4.99083 -2.37592,0.49162 -4.41054,-0.86058 -5.13387,-3.1765 -0.72331,-2.31592 0.97766,-4.93583 3.35356,-5.42743 2.37592,-0.49162 4.97314,1.2001 5.22612,3.6131 0,0 0,0 0,0"
       id="path1936" />
    <path
       inkscape:connector-curvature="0"
       style="opacity:1;vector-effect:none;fill:#ffffff;fill-opacity:1;stroke:none;stroke-width:1.4762336;stroke-linecap:round;stroke-linejoin:round;stroke-miterlimit:4;stroke-dasharray:none;stroke-dashoffset:0;stroke-opacity:1;paint-order:normal"
       d="m 164.06064,149.9458 c -0.71652,2.31801 -2.71992,3.61956 -5.09866,3.14184 -2.37873,-0.47774 -3.69725,-2.62934 -3.46401,-5.04432 0.23327,-2.41503 2.81522,-4.04755 5.19395,-3.56984 2.37874,0.4777 4.08522,3.15431 3.36872,5.47232 0,0 0,0 0,0"
       id="path1934" />
    <path
       inkscape:connector-curvature="0"
       style="opacity:1;vector-effect:none;fill:#989cdb;fill-opacity:1;stroke:none;stroke-width:1.4762336;stroke-linecap:round;stroke-linejoin:round;stroke-miterlimit:4;stroke-dasharray:none;stroke-dashoffset:0;stroke-opacity:1;paint-order:normal"
       d="m 180.06796,159.48076 c -1.6461,1.78245 -4.0674,2.1274 -6.00141,0.66237 -1.934,-1.465 -2.23439,-3.91927 -0.96618,-5.98765 1.26822,-2.06842 4.3375,-2.481 6.27153,-1.01602 1.93398,1.46503 2.34215,4.55887 0.69606,6.3413 0,0 0,0 0,0"
       id="path1932" />
    <path
       inkscape:connector-curvature="0"
       style="opacity:1;vector-effect:none;fill:#ffffff;fill-opacity:1;stroke:none;stroke-width:1.4762336;stroke-linecap:round;stroke-linejoin:round;stroke-miterlimit:4;stroke-dasharray:none;stroke-dashoffset:0;stroke-opacity:1;paint-order:normal"
       d="m 190.60344,174.84993 c -2.2439,0.9228 -4.59967,0.22109 -5.73574,-1.92285 -1.13603,-2.14384 -0.38733,-4.49267 1.63699,-5.83014 2.02432,-1.33747 4.99058,-0.42764 6.12663,1.7162 1.13604,2.14386 0.21597,5.11399 -2.02788,6.03679 0,0 0,0 0,0"
       id="path1930" />
  </g>
</svg>
